<svg width="1200" height="630" viewBox="0 0 1200 630" xmlns="http://www.w3.org/2000/svg" role="img">
  <title>WTClaude — Built on the right data from day one.</title>
  <rect width="1200" height="630" fill="#1A1915"/>
  <!-- mark -->
  <g transform="translate(96,96) scale(1.1)">
    <g transform="rotate(0)"><line x1="0" y1="-12" x2="0" y2="-22" stroke="#E8943A" stroke-width="7" stroke-linecap="round"/><path d="M 0,-22 C 0,-32 16,-35 16,-43 C 16,-52 4,-54 0,-46" fill="none" stroke="#E8943A" stroke-width="7" stroke-linecap="round"/></g>
    <g transform="rotate(60)"><line x1="0" y1="-12" x2="0" y2="-22" stroke="#E8943A" stroke-width="7" stroke-linecap="round"/><path d="M 0,-22 C 0,-32 16,-35 16,-43 C 16,-52 4,-54 0,-46" fill="none" stroke="#E8943A" stroke-width="7" stroke-linecap="round"/></g>
    <g transform="rotate(120)"><line x1="0" y1="-12" x2="0" y2="-22" stroke="#E8943A" stroke-width="7" stroke-linecap="round"/><path d="M 0,-22 C 0,-32 16,-35 16,-43 C 16,-52 4,-54 0,-46" fill="none" stroke="#E8943A" stroke-width="7" stroke-linecap="round"/></g>
    <g transform="rotate(180)"><line x1="0" y1="-12" x2="0" y2="-22" stroke="#E8943A" stroke-width="7" stroke-linecap="round"/><path d="M 0,-22 C 0,-32 16,-35 16,-43 C 16,-52 4,-54 0,-46" fill="none" stroke="#E8943A" stroke-width="7" stroke-linecap="round"/></g>
    <g transform="rotate(240)"><line x1="0" y1="-12" x2="0" y2="-22" stroke="#E8943A" stroke-width="7" stroke-linecap="round"/><path d="M 0,-22 C 0,-32 16,-35 16,-43 C 16,-52 4,-54 0,-46" fill="none" stroke="#E8943A" stroke-width="7" stroke-linecap="round"/></g>
    <g transform="rotate(300)"><line x1="0" y1="-12" x2="0" y2="-22" stroke="#E8943A" stroke-width="7" stroke-linecap="round"/><path d="M 0,-22 C 0,-32 16,-35 16,-43 C 16,-52 4,-54 0,-46" fill="none" stroke="#E8943A" stroke-width="7" stroke-linecap="round"/></g>
    <circle cx="0" cy="0" r="4.5" fill="#FAF8F2"/>
  </g>
  <text x="150" y="112" font-family="'JetBrains Mono', monospace" font-size="40" font-weight="700"><tspan fill="#E8943A">WT</tspan><tspan fill="#FAF8F2">Claude</tspan></text>

  <text x="96" y="300" font-family="'JetBrains Mono', monospace" font-size="62" font-weight="700" fill="#FAF8F2">Built on the right data</text>
  <text x="96" y="372" font-family="'JetBrains Mono', monospace" font-size="62" font-weight="700" fill="#FAF8F2">from day one.</text>

  <!-- mini comparison card — honest "see your own gap" framing (PM-PUB-004 · GTM canonical F) -->
  <g transform="translate(96,440)">
    <rect width="600" height="120" rx="16" fill="#26241f" stroke="#3a362e"/>
    <text x="32" y="44" font-family="Inter, sans-serif" font-size="17" fill="#9E9B90">Session-log estimate</text>
    <text x="32" y="88" font-family="'JetBrains Mono', monospace" font-size="28" font-weight="700" fill="#9E9B90">estimate</text>
    <line x1="300" y1="20" x2="300" y2="100" stroke="#3a362e"/>
    <text x="328" y="44" font-family="Inter, sans-serif" font-size="17" fill="#E8943A">Billing-grade · your bill's source</text>
    <text x="328" y="88" font-family="'JetBrains Mono', monospace" font-size="28" font-weight="700" fill="#FAF8F2">your real cost</text>
  </g>

  <text x="730" y="510" font-family="Inter, sans-serif" font-size="22" fill="#9E9B90">See your own gap</text>
  <text x="96" y="600" font-family="'JetBrains Mono', monospace" font-size="20" fill="#9E9B90">wtclaude.com · Free · Open Source</text>
</svg>
