<svg viewBox="-62 -62 124 124" xmlns="http://www.w3.org/2000/svg" role="img">
<title>WTClaude mark — question burst</title>
<g transform="rotate(0)"><line x1="0" y1="-12" x2="0" y2="-22" stroke="#E8943A" stroke-width="7" stroke-linecap="round"/><path d="M 0,-22 C 0,-32 16,-35 16,-43 C 16,-52 4,-54 0,-46" fill="none" stroke="#E8943A" stroke-width="7" stroke-linecap="round"/></g>
<g transform="rotate(60)"><line x1="0" y1="-12" x2="0" y2="-22" stroke="#E8943A" stroke-width="7" stroke-linecap="round"/><path d="M 0,-22 C 0,-32 16,-35 16,-43 C 16,-52 4,-54 0,-46" fill="none" stroke="#E8943A" stroke-width="7" stroke-linecap="round"/></g>
<g transform="rotate(120)"><line x1="0" y1="-12" x2="0" y2="-22" stroke="#E8943A" stroke-width="7" stroke-linecap="round"/><path d="M 0,-22 C 0,-32 16,-35 16,-43 C 16,-52 4,-54 0,-46" fill="none" stroke="#E8943A" stroke-width="7" stroke-linecap="round"/></g>
<g transform="rotate(180)"><line x1="0" y1="-12" x2="0" y2="-22" stroke="#E8943A" stroke-width="7" stroke-linecap="round"/><path d="M 0,-22 C 0,-32 16,-35 16,-43 C 16,-52 4,-54 0,-46" fill="none" stroke="#E8943A" stroke-width="7" stroke-linecap="round"/></g>
<g transform="rotate(240)"><line x1="0" y1="-12" x2="0" y2="-22" stroke="#E8943A" stroke-width="7" stroke-linecap="round"/><path d="M 0,-22 C 0,-32 16,-35 16,-43 C 16,-52 4,-54 0,-46" fill="none" stroke="#E8943A" stroke-width="7" stroke-linecap="round"/></g>
<g transform="rotate(300)"><line x1="0" y1="-12" x2="0" y2="-22" stroke="#E8943A" stroke-width="7" stroke-linecap="round"/><path d="M 0,-22 C 0,-32 16,-35 16,-43 C 16,-52 4,-54 0,-46" fill="none" stroke="#E8943A" stroke-width="7" stroke-linecap="round"/></g>
<circle cx="0" cy="0" r="4.5" fill="#1A1915"/>
</svg>
